{"title":"Gnarls Barkley - The Odd Couple [FLAC]","uid":6709908,"size":281199006,"categoryP":"audio","categoryS":"flac","magnet":"?xt=urn:btih:03583bb5c316284e001fcd520550e677a2b7b155&amp;dn=Gnarls+Barkley+-+The+Odd+Couple+%5BFLAC%5D&amp;tr=udp%3A%2F%2Ftracker.openbittorrent.com%3A80&amp;tr=udp%3A%2F%2Fopen.demonii.com%3A1337&amp;tr=udp%3A%2F%2Ftracker.coppersurfer.tk%3A6969&amp;tr=udp%3A%2F%2Fexodus.desync.com%3A6969","seeders":2,"leechers":2,"uploader":"summer1967love","files":-1,"time":1317314811,"description":"[spoiler]\nExact Audio Copy V0.99 prebeta 4 from 23. January 2008\n\nEAC extraction logfile from 22. March 2008, 15:15\n\nGnarls Barkley / The Odd Couple\n\nUsed drive : PIONEER DVD-RW DVR-115D Adapter: 5 ID: 1\n\nRead mode : Secure\nUtilize accurate stream : Yes\nDefeat audio cache : Yes\nMake use of C2 pointers : No\n\nRead offset correction : 48\nOverread into Lead-In and Lead-Out : No\nFill up missing offset samples with silence : Yes\nDelete leading and trailing silent blocks : No\nNull samples used in CRC calculations : Yes\nUsed interface : Installed external ASPI interface\nGap handling : Appended to previous track\n\nUsed output format : User Defined Encoder\nSelected bitrate : 320 kBit/s\nQuality : High\nAdd ID3 tag : No\nCommand line compressor : C:\\\\\\\\\\\\\\\\\\\\\\\\\\\\\\\\Program Files\\\\\\\\\\\\\\\\\\\\\\\\\\\\\\\\Exact Audio Copy\\\\\\\\\\\\\\\\\\\\\\\\\\\\\\\\FLAC\\\\\\\\\\\\\\\\\\\\\\\\\\\\\\\\FLAC.EXE\nAdditional command line options : -V -8 -T \\\\\\\\\\\\\\\\\\\\\\\\\\\\\\&quot;artist=%a\\\\\\\\\\\\\\\\\\\\\\\\\\\\\\&quot; -T \\\\\\\\\\\\\\\\\\\\\\\\\\\\\\&quot;title=%t\\\\\\\\\\\\\\\\\\\\\\\\\\\\\\&quot; -T \\\\\\\\\\\\\\\\\\\\\\\\\\\\\\&quot;album=%g\\\\\\\\\\\\\\\\\\\\\\\\\\\\\\&quot; -T \\\\\\\\\\\\\\\\\\\\\\\\\\\\\\&quot;date=%y\\\\\\\\\\\\\\\\\\\\\\\\\\\\\\&quot; -T \\\\\\\\\\\\\\\\\\\\\\\\\\\\\\&quot;tracknumber=%n\\\\\\\\\\\\\\\\\\\\\\\\\\\\\\&quot; -T \\\\\\\\\\\\\\\\\\\\\\\\\\\\\\&quot;genre=%m\\\\\\\\\\\\\\\\\\\\\\\\\\\\\\&quot; %s\n\nTOC of the extracted CD\n\nTrack | Start | Length | Start sector | End sector\n---------------------------------------------------------\n1 | 0:00.00 | 3:12.32 | 0 | 14431\n2 | 3:12.32 | 3:15.10 | 14432 | 29066\n3 | 6:27.42 | 2:54.03 | 29067 | 42119\n4 | 9:21.45 | 2:40.17 | 42120 | 54136\n5 | 12:01.62 | 2:21.73 | 54137 | 64784\n6 | 14:23.60 | 3:20.57 | 64785 | 79841\n7 | 17:44.42 | 2:18.30 | 79842 | 90221\n8 | 20:02.72 | 3:50.18 | 90222 | 107489\n9 | 23:53.15 | 2:55.17 | 107490 | 120631\n10 | 26:48.32 | 2:44.50 | 120632 | 132981\n11 | 29:33.07 | 3:25.25 | 132982 | 148381\n12 | 32:58.32 | 3:05.30 | 148382 | 162286\n13 | 36:03.62 | 3:07.68 | 162287 | 176379\n\nTrack 1\n\nFilename C:\\\\\\\\\\\\\\\\\\\\\\\\\\\\\\\\Documents and Settings\\\\\\\\\\\\\\\\\\\\\\\\\\\\\\\\HP_Administrator\\\\\\\\\\\\\\\\\\\\\\\\\\\\\\\\My Documents\\\\\\\\\\\\\\\\\\\\\\\\\\\\\\\\My Media\\\\\\\\\\\\\\\\\\\\\\\\\\\\\\\\flac\\\\\\\\\\\\\\\\\\\\\\\\\\\\\\\\Gnarls Barkley - The Odd Couple\\\\\\\\\\\\\\\\\\\\\\\\\\\\\\\\[01] Gnarls Barkley - Charity Case.wav\n\nPre-gap length 0:00:02.00\n\nPeak level 98.1 %\nTrack quality 100.0 %\nTest CRC B394CF0E\nCopy CRC B394CF0E\nTrack not present in AccurateRip database\nCopy OK\n\nTrack 2\n\nFilename C:\\\\\\\\\\\\\\\\\\\\\\\\\\\\\\\\Documents and Settings\\\\\\\\\\\\\\\\\\\\\\\\\\\\\\\\HP_Administrator\\\\\\\\\\\\\\\\\\\\\\\\\\\\\\\\My Documents\\\\\\\\\\\\\\\\\\\\\\\\\\\\\\\\My Media\\\\\\\\\\\\\\\\\\\\\\\\\\\\\\\\flac\\\\\\\\\\\\\\\\\\\\\\\\\\\\\\\\Gnarls Barkley - The Odd Couple\\\\\\\\\\\\\\\\\\\\\\\\\\\\\\\\[02] Gnarls Barkley - Who\\\\\\\\\\\\\\\\\\\\\\\\\\\\\\'s Gonna Save My Soul.wav\n\nPeak level 96.5 %\nTrack quality 100.0 %\nTest CRC 2510B298\nCopy CRC 2510B298\nTrack not present in AccurateRip database\nCopy OK\n\nTrack 3\n\nFilename C:\\\\\\\\\\\\\\\\\\\\\\\\\\\\\\\\Documents and Settings\\\\\\\\\\\\\\\\\\\\\\\\\\\\\\\\HP_Administrator\\\\\\\\\\\\\\\\\\\\\\\\\\\\\\\\My Documents\\\\\\\\\\\\\\\\\\\\\\\\\\\\\\\\My Media\\\\\\\\\\\\\\\\\\\\\\\\\\\\\\\\flac\\\\\\\\\\\\\\\\\\\\\\\\\\\\\\\\Gnarls Barkley - The Odd Couple\\\\\\\\\\\\\\\\\\\\\\\\\\\\\\\\[03] Gnarls Barkley - Going On.wav\n\nPeak level 99.8 %\nTrack quality 100.0 %\nTest CRC 962A277B\nCopy CRC 962A277B\nTrack not present in AccurateRip database\nCopy OK\n\nTrack 4\n\nFilename C:\\\\\\\\\\\\\\\\\\\\\\\\\\\\\\\\Documents and Settings\\\\\\\\\\\\\\\\\\\\\\\\\\\\\\\\HP_Administrator\\\\\\\\\\\\\\\\\\\\\\\\\\\\\\\\My Documents\\\\\\\\\\\\\\\\\\\\\\\\\\\\\\\\My Media\\\\\\\\\\\\\\\\\\\\\\\\\\\\\\\\flac\\\\\\\\\\\\\\\\\\\\\\\\\\\\\\\\Gnarls Barkley - The Odd Couple\\\\\\\\\\\\\\\\\\\\\\\\\\\\\\\\[04] Gnarls Barkley - Run (I\\\\\\\\\\\\\\\\\\\\\\\\\\\\\\'m a Natural Disaster).wav\n\nPeak level 98.7 %\nTrack quality 100.0 %\nTest CRC 6C906F30\nCopy CRC 6C906F30\nTrack not present in AccurateRip database\nCopy OK\n\nTrack 5\n\nFilename C:\\\\\\\\\\\\\\\\\\\\\\\\\\\\\\\\Documents and Settings\\\\\\\\\\\\\\\\\\\\\\\\\\\\\\\\HP_Administrator\\\\\\\\\\\\\\\\\\\\\\\\\\\\\\\\My Documents\\\\\\\\\\\\\\\\\\\\\\\\\\\\\\\\My Media\\\\\\\\\\\\\\\\\\\\\\\\\\\\\\\\flac\\\\\\\\\\\\\\\\\\\\\\\\\\\\\\\\Gnarls Barkley - The Odd Couple\\\\\\\\\\\\\\\\\\\\\\\\\\\\\\\\[05] Gnarls Barkley - Would Be Killer.wav\n\nPeak level 98.8 %\nTrack quality 100.0 %\nTest CRC 93990ECE\nCopy CRC 93990ECE\nTrack not present in AccurateRip database\nCopy OK\n\nTrack 6\n\nFilename C:\\\\\\\\\\\\\\\\\\\\\\\\\\\\\\\\Documents and Settings\\\\\\\\\\\\\\\\\\\\\\\\\\\\\\\\HP_Administrator\\\\\\\\\\\\\\\\\\\\\\\\\\\\\\\\My Documents\\\\\\\\\\\\\\\\\\\\\\\\\\\\\\\\My Media\\\\\\\\\\\\\\\\\\\\\\\\\\\\\\\\flac\\\\\\\\\\\\\\\\\\\\\\\\\\\\\\\\Gnarls Barkley - The Odd Couple\\\\\\\\\\\\\\\\\\\\\\\\\\\\\\\\[06] Gnarls Barkley - Open Book.wav\n\nPeak level 98.7 %\nTrack quality 100.0 %\nTest CRC 1D7D6B38\nCopy CRC 1D7D6B38\nTrack not present in AccurateRip database\nCopy OK\n\nTrack 7\n\nFilename C:\\\\\\\\\\\\\\\\\\\\\\\\\\\\\\\\Documents and Settings\\\\\\\\\\\\\\\\\\\\\\\\\\\\\\\\HP_Administrator\\\\\\\\\\\\\\\\\\\\\\\\\\\\\\\\My Documents\\\\\\\\\\\\\\\\\\\\\\\\\\\\\\\\My Media\\\\\\\\\\\\\\\\\\\\\\\\\\\\\\\\flac\\\\\\\\\\\\\\\\\\\\\\\\\\\\\\\\Gnarls Barkley - The Odd Couple\\\\\\\\\\\\\\\\\\\\\\\\\\\\\\\\[07] Gnarls Barkley - Whatever.wav\n\nPeak level 98.8 %\nTrack quality 100.0 %\nTest CRC F5C42B83\nCopy CRC F5C42B83\nTrack not present in AccurateRip database\nCopy OK\n\nTrack 8\n\nFilename C:\\\\\\\\\\\\\\\\\\\\\\\\\\\\\\\\Documents and Settings\\\\\\\\\\\\\\\\\\\\\\\\\\\\\\\\HP_Administrator\\\\\\\\\\\\\\\\\\\\\\\\\\\\\\\\My Documents\\\\\\\\\\\\\\\\\\\\\\\\\\\\\\\\My Media\\\\\\\\\\\\\\\\\\\\\\\\\\\\\\\\flac\\\\\\\\\\\\\\\\\\\\\\\\\\\\\\\\Gnarls Barkley - The Odd Couple\\\\\\\\\\\\\\\\\\\\\\\\\\\\\\\\[08] Gnarls Barkley - Surprise.wav\n\nPeak level 98.7 %\nTrack quality 100.0 %\nTest CRC E47074C2\nCopy CRC E47074C2\nTrack not present in AccurateRip database\nCopy OK\n\nTrack 9\n\nFilename C:\\\\\\\\\\\\\\\\\\\\\\\\\\\\\\\\Documents and Settings\\\\\\\\\\\\\\\\\\\\\\\\\\\\\\\\HP_Administrator\\\\\\\\\\\\\\\\\\\\\\\\\\\\\\\\My Documents\\\\\\\\\\\\\\\\\\\\\\\\\\\\\\\\My Media\\\\\\\\\\\\\\\\\\\\\\\\\\\\\\\\flac\\\\\\\\\\\\\\\\\\\\\\\\\\\\\\\\Gnarls Barkley - The Odd Couple\\\\\\\\\\\\\\\\\\\\\\\\\\\\\\\\[09] Gnarls Barkley - No Time Soon.wav\n\nPeak level 98.7 %\nTrack quality 100.0 %\nTest CRC 310F4138\nCopy CRC 310F4138\nTrack not present in AccurateRip database\nCopy OK\n\nTrack 10\n\nFilename C:\\\\\\\\\\\\\\\\\\\\\\\\\\\\\\\\Documents and Settings\\\\\\\\\\\\\\\\\\\\\\\\\\\\\\\\HP_Administrator\\\\\\\\\\\\\\\\\\\\\\\\\\\\\\\\My Documents\\\\\\\\\\\\\\\\\\\\\\\\\\\\\\\\My Media\\\\\\\\\\\\\\\\\\\\\\\\\\\\\\\\flac\\\\\\\\\\\\\\\\\\\\\\\\\\\\\\\\Gnarls Barkley - The Odd Couple\\\\\\\\\\\\\\\\\\\\\\\\\\\\\\\\[10] Gnarls Barkley - She Knows.wav\n\nPeak level 98.8 %\nTrack quality 100.0 %\nTest CRC B7BF75B7\nCopy CRC B7BF75B7\nTrack not present in AccurateRip database\nCopy OK\n\nTrack 11\n\nFilename C:\\\\\\\\\\\\\\\\\\\\\\\\\\\\\\\\Documents and Settings\\\\\\\\\\\\\\\\\\\\\\\\\\\\\\\\HP_Administrator\\\\\\\\\\\\\\\\\\\\\\\\\\\\\\\\My Documents\\\\\\\\\\\\\\\\\\\\\\\\\\\\\\\\My Media\\\\\\\\\\\\\\\\\\\\\\\\\\\\\\\\flac\\\\\\\\\\\\\\\\\\\\\\\\\\\\\\\\Gnarls Barkley - The Odd Couple\\\\\\\\\\\\\\\\\\\\\\\\\\\\\\\\[11] Gnarls Barkley - Blind Mary.wav\n\nPeak level 99.8 %\nTrack quality 100.0 %\nTest CRC 38668EE6\nCopy CRC 38668EE6\nTrack not present in AccurateRip database\nCopy OK\n\nTrack 12\n\nFilename C:\\\\\\\\\\\\\\\\\\\\\\\\\\\\\\\\Documents and Settings\\\\\\\\\\\\\\\\\\\\\\\\\\\\\\\\HP_Administrator\\\\\\\\\\\\\\\\\\\\\\\\\\\\\\\\My Documents\\\\\\\\\\\\\\\\\\\\\\\\\\\\\\\\My Media\\\\\\\\\\\\\\\\\\\\\\\\\\\\\\\\flac\\\\\\\\\\\\\\\\\\\\\\\\\\\\\\\\Gnarls Barkley - The Odd Couple\\\\\\\\\\\\\\\\\\\\\\\\\\\\\\\\[12] Gnarls Barkley - Neighbors.wav\n\nPeak level 98.7 %\nTrack quality 100.0 %\nTest CRC 0B71EEDE\nCopy CRC 0B71EEDE\nTrack not present in AccurateRip database\nCopy OK\n\nTrack 13\n\nFilename C:\\\\\\\\\\\\\\\\\\\\\\\\\\\\\\\\Documents and Settings\\\\\\\\\\\\\\\\\\\\\\\\\\\\\\\\HP_Administrator\\\\\\\\\\\\\\\\\\\\\\\\\\\\\\\\My Documents\\\\\\\\\\\\\\\\\\\\\\\\\\\\\\\\My Media\\\\\\\\\\\\\\\\\\\\\\\\\\\\\\\\flac\\\\\\\\\\\\\\\\\\\\\\\\\\\\\\\\Gnarls Barkley - The Odd Couple\\\\\\\\\\\\\\\\\\\\\\\\\\\\\\\\[13] Gnarls Barkley - A Little Better.wav\n\nPeak level 98.7 %\nTrack quality 100.0 %\nTest CRC E897DF33\nCopy CRC E897DF33\nTrack not present in AccurateRip database\nCopy OK\n\nNone of the tracks are present in the AccurateRip database\n\nNo errors occurred\n\nEnd of status report\n[/spoiler]\n","torrent":{"xt":"urn:btih:03583bb5c316284e001fcd520550e677a2b7b155","amp;dn":"Gnarls+Barkley+-+The+Odd+Couple+%5BFLAC%5D","amp;tr":["udp%3A%2F%2Ftracker.openbittorrent.com%3A80","udp%3A%2F%2Fopen.demonii.com%3A1337","udp%3A%2F%2Ftracker.coppersurfer.tk%3A6969","udp%3A%2F%2Fexodus.desync.com%3A6969"],"infoHash":"03583bb5c316284e001fcd520550e677a2b7b155","infoHashBuffer":{"type":"Buffer","data":[3,88,59,181,195,22,40,78,0,31,205,82,5,80,230,119,162,183,177,85]},"announce":[],"urlList":[]}}